HIERARCHY
ROOT Hips
{
	OFFSET -0.001795 -0.223333 0.028219
	CHANNELS 6 Xposition Yposition Zposition Zrotation Yrotation Xrotation 
	JOINT LeftUpLeg
	{
		OFFSET 0.069520 -0.091406 -0.006815
		CHANNELS 3 Zrotation Yrotation Xrotation
		JOINT LeftLeg
		{
			OFFSET 0.034277 -0.375199 -0.004496
			CHANNELS 3 Zrotation Yrotation Xrotation
			JOINT LeftFoot
			{
				OFFSET -0.013596 -0.397961 -0.043693
				CHANNELS 3 Zrotation Yrotation Xrotation
				JOINT LeftToe
				{
					OFFSET 0.026358 -0.055791 0.119288
					CHANNELS 3 Zrotation Yrotation Xrotation
					End Site
					{
						OFFSET 0.000000 0.000000 0.000000
					}
				}
			}
		}
	}
	JOINT RightUpLeg
	{
		OFFSET -0.067670 -0.090522 -0.004320
		CHANNELS 3 Zrotation Yrotation Xrotation
		JOINT RightLeg
		{
			OFFSET -0.038290 -0.382569 -0.008850
			CHANNELS 3 Zrotation Yrotation Xrotation
			JOINT RightFoot
			{
				OFFSET 0.015774 -0.398415 -0.042312
				CHANNELS 3 Zrotation Yrotation Xrotation
				JOINT RightToe
				{
					OFFSET -0.025372 -0.048144 0.123348
					CHANNELS 3 Zrotation Yrotation Xrotation
					End Site
					{
						OFFSET 0.000000 0.000000 0.000000
					}
				}
			}
		}
	}
	JOINT Spine
	{
		OFFSET -0.002533 0.108963 -0.026696
		CHANNELS 3 Zrotation Yrotation Xrotation
		JOINT Spine1
		{
			OFFSET 0.005487 0.135180 0.001092
			CHANNELS 3 Zrotation Yrotation Xrotation
			JOINT Spine2
			{
				OFFSET 0.001457 0.052922 0.025425
				CHANNELS 3 Zrotation Yrotation Xrotation
				JOINT Neck
				{
					OFFSET -0.002778 0.213870 -0.042857
					CHANNELS 3 Zrotation Yrotation Xrotation
					JOINT Head
					{
						OFFSET 0.005152 0.064970 0.051349
						CHANNELS 3 Zrotation Yrotation Xrotation
						End Site
						{
							OFFSET 0.000000 0.000000 0.000000
						}
					}
				}
				JOINT LeftShoulder
				{
					OFFSET 0.078845 0.121749 -0.034090
					CHANNELS 3 Zrotation Yrotation Xrotation
					JOINT LeftArm
					{
						OFFSET 0.090977 0.030469 -0.008868
						CHANNELS 3 Zrotation Yrotation Xrotation
						JOINT LeftForeArm
						{
							OFFSET 0.259612 -0.012772 -0.027456
							CHANNELS 3 Zrotation Yrotation Xrotation
							JOINT LeftHand
							{
								OFFSET 0.249234 0.008986 -0.001171
								CHANNELS 3 Zrotation Yrotation Xrotation
								End Site
								{
									OFFSET 0.000000 0.000000 0.000000
								}
							}
						}
					}
				}
				JOINT RightShoulder
				{
					OFFSET -0.081759 0.118833 -0.038615
					CHANNELS 3 Zrotation Yrotation Xrotation
					JOINT RightArm
					{
						OFFSET -0.096012 0.032551 -0.009143
						CHANNELS 3 Zrotation Yrotation Xrotation
						JOINT RightForeArm
						{
							OFFSET -0.253742 -0.013329 -0.021401
							CHANNELS 3 Zrotation Yrotation Xrotation
							JOINT RightHand
							{
								OFFSET -0.255298 0.007772 -0.005559
								CHANNELS 3 Zrotation Yrotation Xrotation
								End Site
								{
									OFFSET 0.000000 0.000000 0.000000
								}
							}
						}
					}
				}
			}
		}
	}
}
MOTION
Frames: 13
Frame Time: 0.050000
-0.096720 0.947362 -0.088905 -0.471100 -5.548808 3.263529 14.183152 0.068625 -2.591846 -3.490022 0.429923 -3.014563 10.686503 20.347630 32.509188 0.000000 0.000000 0.000000 -6.624406 0.845103 -12.213794 5.026841 -0.449002 7.481627 -0.635973 -6.760523 11.476752 0.000000 0.000000 0.000000 5.222669 -1.882663 23.549977 9.221662 -1.470043 -25.667592 -0.945702 -4.381374 21.482217 -0.779704 0.811953 -24.279337 0.000000 0.000000 0.000000 -33.447953 -11.812247 9.393852 -43.316848 -21.176105 -0.423216 -2.881552 -40.190408 3.522192 0.000000 0.000000 0.000000 15.197660 21.855506 8.269984 41.084862 23.260347 2.342256 -20.601737 45.819637 -7.391580 0.000000 0.000000 0.000000 
-0.096269 0.947470 -0.086435 -0.413734 -5.885109 2.780177 14.106448 0.080212 -2.048935 -3.523001 0.433865 -2.341920 10.442924 20.064556 31.705789 0.000000 0.000000 0.000000 -6.875266 0.791630 -11.455884 5.304372 -0.486386 7.249311 -0.447638 -6.405372 11.372412 0.000000 0.000000 0.000000 5.211080 -1.776299 22.376793 9.426368 -1.515275 -25.751355 -1.207336 -4.904652 21.720698 -1.486371 1.101998 -23.756439 0.000000 0.000000 0.000000 -32.957779 -11.018934 9.085969 -43.766491 -20.204724 -0.852692 -3.712198 -41.252496 4.044273 0.000000 0.000000 0.000000 16.041542 20.204445 7.301250 41.930396 19.354475 1.191965 -21.904133 53.096401 -9.680955 0.000000 0.000000 0.000000 
-0.094852 0.947321 -0.083535 -0.368494 -6.026864 2.263263 14.037236 0.080286 -1.360765 -3.631343 0.445975 -1.924947 10.141206 19.740386 30.738997 0.000000 0.000000 0.000000 -6.964347 0.757160 -10.958633 5.203066 -0.466909 7.653172 -0.390185 -6.225295 11.131006 0.000000 0.000000 0.000000 5.207510 -1.681449 21.194439 9.729414 -1.613724 -25.555264 -1.344578 -5.740634 21.816303 -2.153433 1.356411 -23.608478 0.000000 0.000000 0.000000 -32.930405 -10.237489 8.920475 -44.229126 -19.756592 -1.110411 -4.204468 -41.945285 4.411443 0.000000 0.000000 0.000000 16.640955 18.450705 6.177623 42.710257 15.744083 0.109839 -23.747870 59.552610 -12.532376 0.000000 0.000000 0.000000 
-0.092300 0.947290 -0.080288 -0.266705 -6.440023 1.795386 13.772633 0.092597 -0.801632 -3.649756 0.450993 -0.991038 9.762137 19.282168 29.190886 0.000000 0.000000 0.000000 -7.281902 0.717136 -10.397337 5.247056 -0.464708 7.770849 -0.182899 -5.828310 10.996712 0.000000 0.000000 0.000000 5.020170 -1.545160 20.049181 9.926761 -1.686180 -25.403981 -1.597097 -6.599236 22.189372 -2.448419 1.354650 -23.312086 0.000000 0.000000 0.000000 -32.490464 -9.456387 8.812604 -44.844936 -19.301441 -1.410446 -4.945753 -42.104136 4.849009 0.000000 0.000000 0.000000 17.274326 16.878801 5.060939 43.852881 12.221090 -0.991140 -25.977239 66.115249 -16.205789 0.000000 0.000000 0.000000 
-0.088786 0.946895 -0.076774 -0.344886 -6.894865 1.375255 13.841491 0.103535 0.129215 -3.808968 0.473839 -0.980037 9.292173 18.698522 28.388165 0.000000 0.000000 0.000000 -7.307952 0.690057 -9.776080 5.003436 -0.418431 7.737776 0.035847 -5.395578 10.823243 0.000000 0.000000 0.000000 4.739329 -1.404227 18.952317 10.162807 -1.785092 -25.115681 -1.607248 -7.665528 22.316732 -2.588844 1.231538 -23.305626 0.000000 0.000000 0.000000 -32.491047 -8.436125 8.680952 -45.482550 -18.700921 -1.789049 -5.820262 -42.152438 5.336720 0.000000 0.000000 0.000000 17.560707 15.119327 3.762289 44.865354 8.967699 -2.042262 -26.711582 71.613703 -19.123661 0.000000 0.000000 0.000000 
-0.084280 0.946857 -0.073346 -0.409931 -7.607237 0.876787 13.724680 0.128314 1.053005 -3.782704 0.477380 -0.667575 8.839401 18.080930 27.574141 0.000000 0.000000 0.000000 -7.279677 0.663651 -9.037189 4.516480 -0.332969 7.535240 0.408354 -4.749497 10.778220 0.000000 0.000000 0.000000 4.395164 -1.260893 17.996310 10.634336 -1.927881 -24.934258 -2.052000 -8.496955 22.843932 -2.655268 1.071277 -23.058081 0.000000 0.000000 0.000000 -32.360499 -7.722504 8.706147 -45.547402 -18.143748 -2.181326 -6.384949 -42.489281 5.718449 0.000000 0.000000 0.000000 18.219084 13.894082 2.718525 45.459174 6.185625 -2.968452 -28.347943 76.513924 -22.777640 0.000000 0.000000 0.000000 
-0.078799 0.946573 -0.070110 -0.612064 -8.498397 0.458501 13.845653 0.163099 2.044460 -4.078044 0.524222 -0.310927 8.381509 17.415044 26.101871 0.000000 0.000000 0.000000 -7.202147 0.651230 -8.507233 4.083146 -0.254015 7.468966 0.859211 -3.993661 10.788542 0.000000 0.000000 0.000000 4.194635 -1.167916 17.431350 11.077222 -2.050502 -24.853649 -2.418355 -9.139072 23.027657 -2.721353 0.935866 -23.221738 0.000000 0.000000 0.000000 -32.299011 -6.576317 8.389794 -46.040193 -17.448866 -2.586827 -7.100738 -43.125413 6.272809 0.000000 0.000000 0.000000 18.670672 12.362748 1.514804 45.770664 3.694609 -3.768181 -27.042279 80.919488 -24.101904 0.000000 0.000000 0.000000 
-0.072271 0.946409 -0.067383 -0.719965 -9.149897 -0.026698 13.690197 0.189882 3.014041 -4.683609 0.618530 0.346600 8.483789 17.463432 23.393823 0.000000 0.000000 0.000000 -7.095846 0.627433 -7.859783 3.304263 -0.133572 7.294695 1.227725 -3.406609 10.870634 0.000000 0.000000 0.000000 3.967552 -1.079520 16.812380 11.312415 -2.131917 -24.755856 -2.692371 -9.697686 23.388267 -2.678508 0.756853 -22.905466 0.000000 0.000000 0.000000 -32.509076 -5.917823 8.375879 -46.114766 -16.486700 -3.113182 -7.545650 -44.365759 6.803701 0.000000 0.000000 0.000000 19.271947 11.328984 0.595318 45.684188 1.624582 -4.404591 -30.120857 84.657044 -29.008792 0.000000 0.000000 0.000000 
-0.065001 0.946045 -0.065136 -0.952668 -9.505960 -0.207677 13.727056 0.202643 3.633801 -5.324458 0.722618 0.881204 8.295190 17.182597 20.594254 0.000000 0.000000 0.000000 -7.070549 0.618505 -7.591601 2.824721 -0.060283 7.247648 1.463590 -3.097564 11.077731 0.000000 0.000000 0.000000 3.910163 -1.039050 16.335063 11.650902 -2.240872 -24.561175 -3.044575 -10.221417 23.421987 -2.392429 0.470728 -22.946639 0.000000 0.000000 0.000000 -32.658509 -4.992259 8.060757 -46.460445 -15.963313 -3.421831 -7.557549 -46.189190 7.342638 0.000000 0.000000 0.000000 19.380349 10.453849 -0.117372 45.735880 0.412275 -4.769449 -33.578091 87.151185 -33.995236 0.000000 0.000000 0.000000 
-0.057348 0.945804 -0.063424 -1.166607 -9.636710 -0.376693 13.605190 0.206269 4.202921 -5.971026 0.827195 1.173994 8.466713 17.438082 18.064064 0.000000 0.000000 0.000000 -7.134365 0.604294 -7.305128 2.434549 -0.005688 7.137751 1.626752 -2.960411 11.402424 0.000000 0.000000 0.000000 3.486799 -0.959372 15.988288 11.983126 -2.286978 -24.766793 -3.426483 -10.509945 23.904057 -1.726738 -0.015975 -22.609670 0.000000 0.000000 0.000000 -32.580546 -4.696204 8.013229 -46.341647 -15.304962 -3.753891 -6.646790 -49.743357 7.788004 0.000000 0.000000 0.000000 19.905831 9.926931 -0.607868 45.522864 -0.386663 -4.990955 -56.284317 88.467044 -57.163124 0.000000 0.000000 0.000000 
-0.049729 0.945297 -0.062077 -1.456612 -9.652002 -0.581281 13.705434 0.203954 4.829205 -6.927335 0.977363 1.340336 8.700323 17.840859 15.547708 0.000000 0.000000 0.000000 -7.118143 0.583710 -6.916673 2.060946 0.041040 6.940751 1.738177 -2.897093 11.703925 0.000000 0.000000 0.000000 3.301787 -0.919395 15.685378 12.007442 -2.324378 -24.584769 -3.492706 -10.958720 23.942945 -1.353921 -0.317573 -22.730035 0.000000 0.000000 0.000000 -32.643239 -4.148215 7.868536 -46.702470 -15.284139 -3.864762 -5.966768 -54.058484 8.626304 0.000000 0.000000 0.000000 19.679498 9.204849 -1.095689 45.637236 -0.330862 -4.963705 -121.836623 88.304499 -122.887764 0.000000 0.000000 0.000000 
-0.042424 0.945062 -0.061156 -1.730165 -9.519572 -0.638605 13.732866 0.193457 5.160725 -7.260249 1.009186 0.902909 8.690865 17.860106 14.912853 0.000000 0.000000 0.000000 -6.998973 0.570748 -6.679445 1.523644 0.108713 6.731950 1.789452 -2.971144 12.090969 0.000000 0.000000 0.000000 2.829607 -0.848530 15.440645 12.274388 -2.338755 -24.870538 -3.748593 -11.236193 24.377466 -1.228906 -0.441716 -22.685496 0.000000 0.000000 0.000000 -33.005091 -3.929552 7.883084 -46.507690 -15.150643 -4.012175 -5.737788 -59.276915 9.798845 0.000000 0.000000 0.000000 19.676527 8.791591 -1.365820 45.293297 -0.020758 -4.823601 -131.520322 86.710127 -131.611929 0.000000 0.000000 0.000000 
-0.035663 0.944766 -0.060602 -1.929724 -9.404450 -0.604191 13.760035 0.184204 5.303502 -7.676731 1.056029 0.571114 8.687300 17.880960 14.335569 0.000000 0.000000 0.000000 -6.939723 0.560175 -6.465317 1.015619 0.162444 6.325996 1.844295 -3.038340 12.475056 0.000000 0.000000 0.000000 2.445137 -0.794403 15.291875 12.127853 -2.338103 -24.661491 -3.785315 -11.613327 24.098744 -1.148876 -0.522698 -22.934746 0.000000 0.000000 0.000000 -32.781829 -3.699017 7.816226 -46.961905 -15.502883 -3.886895 -6.291437 -64.683905 11.714058 0.000000 0.000000 0.000000 19.428086 8.512121 -1.562656 45.245552 0.854047 -4.467794 -134.847662 84.480859 -133.642566 0.000000 0.000000 0.000000 
